<svg xmlns="http://www.w3.org/2000/svg" viewBox="0 0 160 32" fill="none"><g transform="translate(2 4)"><path d="M12 12 C8.8 7.5 8.8 4 12 0.8 C15.2 4 15.2 7.5 12 12 Z" fill="#F26419"/><path d="M12 12 C16.5 8.8 20 8.8 23.2 12 C20 15.2 16.5 15.2 12 12 Z" fill="#2D5BE3"/><path d="M12 12 C15.2 16.5 15.2 20 12 23.2 C8.8 20 8.8 16.5 12 12 Z" fill="#3E9E3E"/><path d="M12 12 C7.5 15.2 4 15.2 0.8 12 C4 8.8 7.5 8.8 12 12 Z" fill="#F2B705"/></g><text x="34" y="22" font-family="ui-sans-serif, system-ui, -apple-system, 'Segoe UI', Roboto, Arial, sans-serif" font-size="21" font-weight="600" letter-spacing="-0.02em" fill="#FFFFFF">Sparqo</text></svg>