<svg xmlns="http://www.w3.org/2000/svg" viewBox="0 0 160 32" fill="none">
  <defs><clipPath id="sq"><rect x="2" y="2" width="28" height="28" rx="5.6"/></clipPath></defs>
  <rect x="2" y="2" width="28" height="28" rx="5.6" fill="#B1FE7C"/>
  <g clip-path="url(#sq)">
    <path transform="translate(16 16) rotate(45) scale(1.806) translate(-12 -10.7)" fill="#042D2B" d="M12 2l1.7 5.1a3 3 0 0 0 1.9 1.9L20.7 10.7l-5.1 1.7a3 3 0 0 0-1.9 1.9L12 19.4l-1.7-5.1a3 3 0 0 0-1.9-1.9L3.3 10.7l5.1-1.7a3 3 0 0 0 1.9-1.9z"/>
  </g>
  <text x="38" y="22.5" font-family="ui-sans-serif, system-ui, -apple-system, 'Segoe UI', Roboto, Arial, sans-serif" font-size="21" font-weight="600" letter-spacing="-0.02em" fill="#FFFFFF">Sparqo</text>
</svg>
